# Blender 5.0.1
# www.blender.org
o roof-curved
v 2.100000 2.500000 0.750000
v -2.100000 2.500000 0.750000
v -2.100000 3.000000 0.750000
v 2.100000 3.000000 0.750000
v -2.100000 2.500000 6.753425
v 2.100000 2.500000 6.753425
v -2.100000 3.000000 6.753425
v 2.100000 3.000000 6.753425
vn -0.0000 1.0000 -0.0000
vn -1.0000 -0.0000 -0.0000
vn -0.0000 -0.0000 -1.0000
vn 1.0000 -0.0000 -0.0000
vn -0.0000 -0.0000 1.0000
vn -0.0000 -1.0000 -0.0000
vt 0.375000 0.000000
vt 0.625000 0.000000
vt 0.625000 0.250000
vt 0.375000 0.250000
s 0
f 3/1/1 7/2/1 8/3/1 4/4/1
f 2/1/2 5/2/2 7/2/2 3/1/2
f 1/4/3 2/1/3 3/1/3 4/4/3
f 4/4/4 8/3/4 6/3/4 1/4/4
f 5/2/5 6/3/5 8/3/5 7/2/5
f 1/4/6 6/3/6 5/2/6 2/1/6
